# xmcd
#
# Track frame offsets: 
#        150
#        11855
#        27350
#        47132
#        63375
#        78750
#        94397
#        108460
#        125937
#        140315
#
# Disc length: 2077 seconds
#
# Revision: 4
# Processed by: cddbd v1.4PL0 Copyright (c) Steve Scherf et al.
# Submitted via: ExactAudioCopy v0.90b3
#
DISCID=8a081b0a
DTITLE=Earl Thomas Conley - The Very Best Of Earl Thomas Conley - Disc
DTITLE=2
DYEAR=1900
DGENRE=Country
TTITLE0=I Have Loved You Girl (But Not Like This Before)
TTITLE1=Don't Make It Easy For Me
TTITLE2=That Was A Close One
TTITLE3=We Believe In Happy Endings (Duet With Emmylou Harris)
TTITLE4=Nobody Falls Like A Fool
TTITLE5=Love Don't Care (Whose Heart It Breaks)
TTITLE6=Right From The Start
TTITLE7=What I'd Say
TTITLE8=Holding Her And Loving You
TTITLE9=Smokey Mountain Memories
EXTD=1989/HD 1077
EXTT0=
EXTT1=
EXTT2=
EXTT3=
EXTT4=
EXTT5=
EXTT6=
EXTT7=
EXTT8=
EXTT9=
PLAYORDER=
